<?xml version="1.0" encoding="UTF-8"?>
<svg width="102px" height="75px" viewBox="0 0 102 75" version="1.1" xmlns="http://www.w3.org/2000/svg" xmlns:xlink="http://www.w3.org/1999/xlink">
    <!-- Generator: Sketch 56.3 (81716) - https://sketch.com -->
    <title>callkit_backdelete_dialpad_icon</title>
    <desc>Created with Sketch.</desc>
    <g id="callkit_backdelete_dialpad_icon" stroke="none" stroke-width="1" fill="none" fill-rule="evenodd">
        <path d="M84.74925,73.636575 L50.42115,73.636575 L46.49925,73.636575 L41.999214,73.636575 C42.05868,73.636575 35.234574,73.62255 30.748206,69.136875 C26.263266,64.6506 1.498788,37.6347 1.498788,37.6347 C1.498788,37.6347 26.263266,10.62015 30.748206,6.137175 C35.234574,1.6515 42.05868,1.636875 41.999214,1.636875 L46.49925,1.636875 L50.42115,1.636875 L84.74925,1.636875 C93.446586,1.636875 100.497234,8.688075 100.497234,17.3856 L100.497234,37.6347 L100.497234,57.8871 C100.497234,66.5847 93.446586,73.636575 84.74925,73.636575 Z" id="box" fill="#E5E5E5"></path>
        <path d="M61.4489652,33.4387744 L72.925452,21.970545 C74.076226,20.81966 75.943505,20.81966 77.095796,21.970545 C78.244276,23.120764 78.244276,24.984935 77.095796,26.137152 L65.6184774,37.6050534 L77.073966,49.051659 C78.222446,50.201878 78.222446,52.06542 77.073966,53.216305 C75.922415,54.36719 74.054396,54.36719 72.905139,53.216305 L61.4496161,41.770494 L49.994406,53.216305 C48.843632,54.36719 46.97713,54.36719 45.824839,53.216305 C44.674842,52.06542 44.674842,50.201878 45.824839,49.051659 L57.2801637,37.6045764 L45.803009,26.137152 C44.654492,24.984935 44.654492,23.120764 45.803009,21.970545 C46.9553,20.81966 48.822579,20.81966 49.971836,21.970545 L61.4489652,33.4387744 L61.4489652,33.4387744 Z" id="cross" fill="#000000"></path>
    </g>
</svg>